<svg width="416" height="314" viewBox="0 0 416 314" fill="none" xmlns="http://www.w3.org/2000/svg">
<g clip-path="url(#clip0_19_48)">
<path d="M228 73.4C228 59.2 224.3 48.3 216.9 40.7C209.5 32.9 198.6 29 184.2 29H139.2V118.7H163.5C173.1 118.7 181.7 118.2 189.3 117.2C197.1 116.2 203.7 114.1 209.1 110.9C214.7 107.7 219.1 103.2 222.3 97.4C225.5 91.4 227.4 83.4 228 73.4ZM139.2 228.5C139.2 231.3 137.8 232.7 135 232.7H121.5C118.7 232.7 117.3 231.3 117.3 228.5V19.1C117.3 14.7 117.7 12.1 118.5 11.3C119.5 10.5 122.1 10.1 126.3 10.1H179.7C201.7 10.1 218.9 15.4 231.3 26C244.1 37 250.5 52.8 250.5 73.4C250.5 83.8 248.6 93.1 244.8 101.3C241.2 109.3 236.1 116.1 229.5 121.7C222.9 127.1 215.1 131.2 206.1 134C197.1 136.8 187.5 138 177.3 137.6H139.2V228.5Z" fill="#292929"/>
<path d="M190.8 229.7C187.6 228.7 186.3 226.9 186.9 224.3L188.1 210.5C188.5 208.9 189.1 207.8 189.9 207.2C190.9 206.6 192 206.7 193.2 207.5C200.2 211.3 207.2 214.1 214.2 215.9C221.4 217.5 229.6 218.3 238.8 218.3C253.4 218.3 265.3 214.3 274.5 206.3C283.9 198.3 288.6 187 288.6 172.4C288.6 166.6 286.3 160.8 281.7 155C277.3 149.2 271.1 143.7 263.1 138.5C256.1 134.1 248.2 129.5 239.4 124.7C230.6 119.9 222.2 114.7 214.2 109.1C206.2 103.3 199.5 96.9 194.1 89.9C188.7 82.7 186 74.4 186 65C186 55.4 188 47 192 39.8C196 32.4 201.3 26.3 207.9 21.5C214.7 16.5 222.4 12.7 231 10.1C239.6 7.49999 248.4 6.19999 257.4 6.19999C265.2 6.19999 272.1 6.69999 278.1 7.69999C284.1 8.49999 290.6 9.99999 297.6 12.2C300.6 13.2 301.8 15 301.2 17.6L298.8 29.3C298.2 32.7 296.5 33.6 293.7 32C288.1 29.4 282.6 27.7 277.2 26.9C272 25.9 265.3 25.4 257.1 25.4C250.5 25.4 244.2 26.2 238.2 27.8C232.4 29.4 227.3 31.8 222.9 35C218.7 38.2 215.3 42.2 212.7 47C210.1 51.8 208.8 57.5 208.8 64.1C208.8 69.3 210.5 74.2 213.9 78.8C217.5 83.4 221.8 87.7 226.8 91.7C232 95.7 237.5 99.4 243.3 102.8C249.3 106 254.7 109 259.5 111.8C266.1 115.6 272.5 119.5 278.7 123.5C284.9 127.5 290.4 132 295.2 137C300 142 303.9 147.5 306.9 153.5C309.9 159.5 311.4 166.4 311.4 174.2C311.4 184.2 309.3 193.1 305.1 200.9C301.1 208.7 295.7 215.3 288.9 220.7C282.1 226.1 274.2 230.2 265.2 233C256.4 236 247.2 237.5 237.6 237.5C228.8 237.5 220.9 236.9 213.9 235.7C207.1 234.5 199.4 232.5 190.8 229.7Z" fill="#292929"/>
<path d="M44.56 258.464C44.56 256.192 43.968 254.448 42.784 253.232C41.6 251.984 39.856 251.36 37.552 251.36H30.352V265.712H34.24C35.776 265.712 37.152 265.632 38.368 265.472C39.616 265.312 40.672 264.976 41.536 264.464C42.432 263.952 43.136 263.232 43.648 262.304C44.16 261.344 44.464 260.064 44.56 258.464ZM30.352 283.28C30.352 283.728 30.128 283.952 29.68 283.952H27.52C27.072 283.952 26.848 283.728 26.848 283.28V249.776C26.848 249.072 26.912 248.656 27.04 248.528C27.2 248.4 27.616 248.336 28.288 248.336H36.832C40.352 248.336 43.104 249.184 45.088 250.88C47.136 252.64 48.16 255.168 48.16 258.464C48.16 260.128 47.856 261.616 47.248 262.928C46.672 264.208 45.856 265.296 44.8 266.192C43.744 267.056 42.496 267.712 41.056 268.16C39.616 268.608 38.08 268.8 36.448 268.736H30.352V283.28ZM84.6951 271.376C83.3511 268.048 82.0551 264.768 80.8071 261.536C79.5911 258.272 78.3111 254.976 76.9671 251.648C75.6231 254.976 74.2951 258.272 72.9831 261.536C71.7031 264.768 70.3911 268.048 69.0471 271.376H84.6951ZM93.0471 283.28C93.2071 283.728 93.0631 283.952 92.6151 283.952H90.3111C90.1191 283.952 89.9431 283.92 89.7831 283.856C89.6551 283.792 89.5271 283.6 89.3991 283.28L85.8471 274.448H67.7991C67.1911 275.952 66.5991 277.424 66.0231 278.864C65.4471 280.304 64.8711 281.776 64.2951 283.28C64.1671 283.6 64.0231 283.792 63.8631 283.856C63.7351 283.92 63.5751 283.952 63.3831 283.952H61.1271C60.6791 283.952 60.5351 283.728 60.6951 283.28L74.8071 248.912C74.9671 248.528 75.2551 248.336 75.6711 248.336H78.5991C79.0151 248.336 79.3031 248.528 79.4631 248.912L93.0471 283.28ZM111.938 271.568C111.938 274.608 112.722 277.008 114.29 278.768C116.05 280.72 118.402 281.696 121.346 281.696C124.354 281.696 126.738 280.72 128.498 278.768C129.298 277.904 129.874 276.88 130.226 275.696C130.61 274.48 130.802 273.104 130.802 271.568V249.008C130.802 248.56 131.026 248.336 131.474 248.336H133.682C134.13 248.336 134.354 248.56 134.354 249.008V271.568C134.354 273.904 133.97 275.968 133.202 277.76C132.434 279.52 131.33 280.96 129.89 282.08C127.554 283.84 124.706 284.72 121.346 284.72C118.018 284.72 115.186 283.84 112.85 282.08C109.874 279.872 108.386 276.368 108.386 271.568V249.008C108.386 248.56 108.61 248.336 109.058 248.336H111.266C111.714 248.336 111.938 248.56 111.938 249.008V271.568ZM170.093 280.928C170.541 280.928 170.765 281.152 170.765 281.6V283.28C170.765 283.728 170.541 283.952 170.093 283.952H154.541C154.093 283.952 153.741 283.952 153.485 283.952C153.261 283.92 153.085 283.856 152.957 283.76C152.861 283.632 152.797 283.44 152.765 283.184C152.765 282.928 152.765 282.576 152.765 282.128V249.104C152.765 248.656 152.989 248.432 153.437 248.432H155.645C156.093 248.432 156.317 248.656 156.317 249.104V280.928H170.093ZM189.119 285.392C189.119 285.84 188.895 286.064 188.447 286.064H186.143C185.695 286.064 185.471 285.84 185.471 285.392V251.216C185.471 250.768 185.695 250.544 186.143 250.544H188.447C188.895 250.544 189.119 250.768 189.119 251.216V285.392ZM210.2 283.28C210.2 283.728 209.976 283.952 209.528 283.952H207.368C206.92 283.952 206.696 283.728 206.696 283.28V249.68C206.696 249.008 206.744 248.624 206.84 248.528C206.968 248.4 207.368 248.336 208.04 248.336H210.248C210.664 248.336 210.936 248.384 211.064 248.48C211.224 248.544 211.384 248.72 211.544 249.008L229.64 280.064V249.008C229.64 248.56 229.864 248.336 230.312 248.336H232.424C232.872 248.336 233.096 248.56 233.096 249.008V282.608C233.096 283.28 233.032 283.68 232.904 283.808C232.808 283.904 232.424 283.952 231.752 283.952H228.824C228.568 283.952 228.376 283.92 228.248 283.856C228.152 283.792 228.024 283.632 227.864 283.376L210.2 252.848V283.28ZM252.995 284C252.323 284 251.923 283.952 251.795 283.856C251.699 283.728 251.651 283.328 251.651 282.656V249.584C251.651 248.976 251.699 248.624 251.795 248.528C251.923 248.4 252.291 248.336 252.899 248.336H269.555C270.003 248.336 270.227 248.56 270.227 249.008V250.688C270.227 251.136 270.003 251.36 269.555 251.36H255.155V264.032H268.835C269.283 264.032 269.507 264.256 269.507 264.704V266.432C269.507 266.88 269.283 267.104 268.835 267.104H255.155V280.928H270.131C270.579 280.928 270.803 281.152 270.803 281.6V283.328C270.803 283.776 270.579 284 270.131 284H252.995ZM288.187 283.472C287.675 283.312 287.467 283.024 287.563 282.608L287.755 280.4C287.819 280.144 287.915 279.968 288.043 279.872C288.203 279.776 288.379 279.792 288.571 279.92C289.691 280.528 290.811 280.976 291.931 281.264C293.083 281.52 294.395 281.648 295.867 281.648C298.203 281.648 300.107 281.008 301.579 279.728C303.083 278.448 303.835 276.64 303.835 274.304C303.835 273.376 303.467 272.448 302.731 271.52C302.027 270.592 301.035 269.712 299.755 268.88C298.635 268.176 297.371 267.44 295.963 266.672C294.555 265.904 293.211 265.072 291.931 264.176C290.651 263.248 289.579 262.224 288.715 261.104C287.851 259.952 287.419 258.624 287.419 257.12C287.419 255.584 287.739 254.24 288.379 253.088C289.019 251.904 289.867 250.928 290.923 250.16C292.011 249.36 293.243 248.752 294.619 248.336C295.995 247.92 297.403 247.712 298.843 247.712C300.091 247.712 301.195 247.792 302.155 247.952C303.115 248.08 304.155 248.32 305.275 248.672C305.755 248.832 305.947 249.12 305.851 249.536L305.467 251.408C305.371 251.952 305.099 252.096 304.651 251.84C303.755 251.424 302.875 251.152 302.011 251.024C301.179 250.864 300.107 250.784 298.795 250.784C297.739 250.784 296.731 250.912 295.771 251.168C294.843 251.424 294.027 251.808 293.323 252.32C292.651 252.832 292.107 253.472 291.691 254.24C291.275 255.008 291.067 255.92 291.067 256.976C291.067 257.808 291.339 258.592 291.883 259.328C292.459 260.064 293.147 260.752 293.947 261.392C294.779 262.032 295.659 262.624 296.587 263.168C297.547 263.68 298.411 264.16 299.179 264.608C300.235 265.216 301.259 265.84 302.251 266.48C303.243 267.12 304.123 267.84 304.891 268.64C305.659 269.44 306.283 270.32 306.763 271.28C307.243 272.24 307.483 273.344 307.483 274.592C307.483 276.192 307.147 277.616 306.475 278.864C305.835 280.112 304.971 281.168 303.883 282.032C302.795 282.896 301.531 283.552 300.091 284C298.683 284.48 297.211 284.72 295.675 284.72C294.267 284.72 293.003 284.624 291.883 284.432C290.795 284.24 289.563 283.92 288.187 283.472ZM333.304 266.288L328.6 271.808V283.28C328.6 283.728 328.376 283.952 327.928 283.952H325.816C325.368 283.952 325.144 283.728 325.144 283.28V249.104C325.144 248.656 325.368 248.432 325.816 248.432H327.928C328.376 248.432 328.6 248.656 328.6 249.104V267.392L343.432 249.104C343.88 248.656 344.424 248.432 345.064 248.432H347.752C347.944 248.432 348.056 248.512 348.088 248.672C348.152 248.8 348.104 248.944 347.944 249.104L335.56 263.648L349.096 283.28C349.384 283.728 349.32 283.952 348.904 283.952H346.312C345.992 283.952 345.704 283.904 345.448 283.808C345.192 283.712 344.984 283.536 344.824 283.28L333.304 266.288ZM378.07 285.392C378.07 285.84 377.846 286.064 377.398 286.064H375.19C374.742 286.064 374.518 285.84 374.518 285.392V271.04C372.374 267.68 370.23 264.352 368.086 261.056C365.974 257.728 363.846 254.416 361.702 251.12C361.638 250.96 361.638 250.816 361.702 250.688C361.766 250.528 361.894 250.448 362.086 250.448H364.822C365.206 250.448 365.526 250.672 365.782 251.12L376.246 267.968C378.166 265.056 379.974 262.256 381.67 259.568C383.366 256.848 385.174 254.032 387.094 251.12C387.318 250.672 387.638 250.448 388.054 250.448H390.454C390.646 250.448 390.774 250.528 390.838 250.688C390.934 250.816 390.934 250.96 390.838 251.12L378.07 271.04V285.392Z" fill="#292929"/>
<path d="M312.2 303.32L312.488 304.94C312.536 305.18 312.56 305.36 312.56 305.48C312.56 306.2 312.2 306.56 311.48 306.56C310.904 306.56 310.544 306.2 310.4 305.48C310.352 305.288 310.16 304.388 309.824 302.78C309.488 301.172 309.08 299.264 308.6 297.056C308.144 294.848 307.796 293.18 307.556 292.052C307.316 290.924 307.088 290.144 306.872 289.712C306.68 289.28 306.416 289.064 306.08 289.064C305.048 289.064 304.028 290.084 303.02 292.124C302.012 294.14 301.136 296.588 300.392 299.468C301.4 300.02 302.18 300.932 302.732 302.204C303.284 303.476 303.56 304.808 303.56 306.2C303.56 310.28 302.48 312.32 300.32 312.32C299.264 312.32 298.46 311.804 297.908 310.772C297.356 309.74 297.08 308.468 297.08 306.956C297.08 305.42 297.308 303.512 297.764 301.232C296.012 301.52 293.408 302.936 289.952 305.48C289.208 306.032 288.584 306.416 288.08 306.632C287.576 306.824 287.192 306.92 286.928 306.92C286.208 306.92 285.848 306.56 285.848 305.84C285.848 305.384 286.172 305.036 286.82 304.796C287.468 304.532 288.236 304.076 289.124 303.428C290.036 302.756 290.804 302.204 291.428 301.772C292.052 301.316 293.072 300.752 294.488 300.08C295.928 299.408 297.188 299.048 298.268 299C300.332 290.936 302.936 286.904 306.08 286.904C307.304 286.904 308.18 287.432 308.708 288.488C309.068 289.208 309.38 290.18 309.644 291.404L311.624 300.872C312.512 300.392 313.772 299.96 315.404 299.576C317.036 299.192 318.224 299 318.968 299C319.736 299 320.12 299.36 320.12 300.08C320.12 300.752 319.76 301.088 319.04 301.088C318.44 301.088 317.144 301.352 315.152 301.88C313.184 302.384 312.2 302.864 312.2 303.32ZM299.888 301.772C299.456 303.908 299.24 305.624 299.24 306.92C299.24 309.08 299.6 310.16 300.32 310.16C301.04 310.16 301.4 308.84 301.4 306.2C301.4 305.432 301.268 304.616 301.004 303.752C300.74 302.888 300.368 302.228 299.888 301.772ZM325.879 298.28C325.879 297.968 325.975 297.716 326.167 297.524C326.359 297.308 326.623 297.2 326.959 297.2C327.679 297.2 328.039 297.56 328.039 298.28C328.039 300.128 328.471 301.856 329.335 303.464C330.223 305.048 331.231 305.84 332.359 305.84C332.863 305.84 333.967 302.984 335.671 297.272C335.887 296.552 336.343 296.192 337.039 296.192C337.399 296.192 337.663 296.264 337.831 296.408C337.999 296.552 338.095 296.744 338.119 296.984C338.167 297.224 338.239 297.68 338.335 298.352C338.431 299.024 338.551 299.696 338.695 300.368C338.815 301.04 338.971 301.76 339.163 302.528C339.595 304.256 340.087 305.12 340.639 305.12C341.095 305.12 341.503 305.06 341.863 304.94C342.223 304.82 342.439 304.76 342.511 304.76C343.231 304.76 343.591 305.12 343.591 305.84C343.591 306.368 343.267 306.74 342.619 306.956C341.971 307.172 341.371 307.28 340.819 307.28C340.267 307.28 339.811 307.196 339.451 307.028C339.091 306.836 338.791 306.608 338.551 306.344C338.359 306.104 338.143 305.744 337.903 305.264C337.639 304.736 337.387 304.124 337.147 303.428C336.931 302.732 336.811 302.324 336.787 302.204C336.763 302.084 336.739 301.964 336.715 301.844C336.715 301.7 336.703 301.592 336.679 301.52C336.631 301.616 336.583 301.76 336.535 301.952L336.391 302.384C336.343 302.48 336.295 302.588 336.247 302.708C336.223 302.804 336.103 303.176 335.887 303.824C335.671 304.448 335.479 304.952 335.311 305.336C335.143 305.672 334.915 306.08 334.627 306.56C334.051 307.52 333.259 308 332.251 308C331.267 308 330.235 307.52 329.155 306.56C328.075 305.6 327.235 304.316 326.635 302.708C326.179 303.452 325.627 304.136 324.979 304.76C323.899 305.816 323.107 306.44 322.603 306.632C322.123 306.824 321.751 306.92 321.487 306.92C320.767 306.92 320.407 306.56 320.407 305.84C320.407 305.384 320.767 305.012 321.487 304.724C322.207 304.412 323.119 303.644 324.223 302.42C325.327 301.196 325.879 299.816 325.879 298.28ZM363.753 303.932C363.081 304.916 362.205 305.72 361.125 306.344C360.045 306.968 358.893 307.28 357.669 307.28C356.469 307.28 355.521 306.884 354.825 306.092C354.153 305.3 353.769 304.364 353.673 303.284C352.089 306.428 350.289 308 348.273 308C346.977 308 345.921 307.628 345.105 306.884C344.289 306.116 343.881 304.748 343.881 302.78C343.881 300.788 344.529 299 345.825 297.416C347.121 295.832 348.633 295.04 350.361 295.04C351.345 295.04 352.497 295.58 353.817 296.66C354.249 291.764 355.125 287.648 356.445 284.312C356.733 283.592 357.105 283.232 357.561 283.232C358.281 283.232 358.641 283.592 358.641 284.312C358.641 284.48 358.593 284.684 358.497 284.924C357.705 286.892 357.045 289.364 356.517 292.34C356.013 295.316 355.761 298.496 355.761 301.88C355.761 303.008 355.893 303.836 356.157 304.364C356.445 304.868 357.033 305.12 357.921 305.12C359.505 305.12 360.897 304.28 362.097 302.6C362.169 302.504 362.373 302.204 362.709 301.7C363.069 301.196 363.321 300.86 363.465 300.692C363.609 300.5 363.849 300.212 364.185 299.828C364.521 299.42 364.809 299.144 365.049 299C365.769 298.52 366.441 298.28 367.065 298.28C367.713 298.28 368.289 298.532 368.793 299.036C369.297 299.516 369.669 300.104 369.909 300.8C370.125 301.52 370.329 302.24 370.521 302.96C370.953 304.664 371.433 305.504 371.961 305.48C372.417 305.48 373.005 305.36 373.725 305.12C374.445 304.88 374.841 304.76 374.913 304.76C375.633 304.76 375.993 305.12 375.993 305.84C375.993 306.368 375.633 306.752 374.913 306.992C373.617 307.424 372.609 307.64 371.889 307.64C371.193 307.64 370.593 307.4 370.089 306.92C369.585 306.416 369.213 305.816 368.973 305.12C368.757 304.4 368.553 303.68 368.361 302.96C367.929 301.28 367.449 300.44 366.921 300.44C366.393 300.44 365.337 301.604 363.753 303.932ZM365.841 290.144C366.225 290.144 366.621 290.324 367.029 290.684C367.437 291.02 367.641 291.38 367.641 291.764C367.641 292.124 367.485 292.4 367.173 292.592C366.885 292.784 366.549 292.88 366.165 292.88C365.781 292.88 365.445 292.712 365.157 292.376C364.893 292.016 364.761 291.632 364.761 291.224C364.761 290.504 365.121 290.144 365.841 290.144ZM353.241 298.64C352.953 298.64 352.761 298.592 352.665 298.496C352.473 298.304 352.269 298.136 352.053 297.992C351.405 297.464 350.841 297.2 350.361 297.2C349.305 297.2 348.321 297.764 347.409 298.892C346.497 299.996 346.041 301.4 346.041 303.104C346.041 304.184 346.209 304.916 346.545 305.3C346.905 305.66 347.481 305.84 348.273 305.84C349.953 305.84 351.609 303.44 353.241 298.64ZM377.735 297.92C378.455 297.92 378.815 298.28 378.815 299C378.815 299.288 378.755 299.576 378.635 299.864C378.515 300.152 378.455 300.5 378.455 300.908C378.455 301.292 378.575 301.688 378.815 302.096C379.079 302.504 379.451 302.948 379.931 303.428C380.411 303.884 381.131 304.28 382.091 304.616C383.051 304.952 384.011 305.12 384.971 305.12C385.955 305.12 386.795 304.868 387.491 304.364C388.187 303.86 388.535 303.152 388.535 302.24C388.535 300.728 388.187 299.516 387.491 298.604C386.795 297.668 385.823 297.2 384.575 297.2C383.999 297.2 383.411 297.38 382.811 297.74C382.235 298.1 381.863 298.28 381.695 298.28C380.975 298.28 380.615 297.92 380.615 297.2C380.615 296.744 381.023 296.276 381.839 295.796C382.679 295.292 383.591 295.04 384.575 295.04C386.399 295.04 387.875 295.712 389.003 297.056C390.131 298.376 390.695 300.104 390.695 302.24C390.695 303.776 390.119 305 388.967 305.912C387.839 306.824 386.627 307.28 385.331 307.28C384.035 307.28 382.847 307.124 381.767 306.812C380.711 306.476 379.859 306.068 379.211 305.588C378.563 305.084 377.999 304.544 377.519 303.968C376.703 302.96 376.295 302.036 376.295 301.196C376.295 300.332 376.427 299.576 376.691 298.928C376.955 298.256 377.303 297.92 377.735 297.92Z" fill="#292929"/>
</g>
<defs>
<clipPath id="clip0_19_48">
<rect width="416" height="314" fill="white"/>
</clipPath>
</defs>
</svg>
